<svg
      width="50"
      height="50"
      viewBox="0 0 50 50"
      fill="none"
      xmlns="http://www.w3.org/2000/svg"
    >
      <path
        d="M6.5 13.5C6.23478 13.5 5.98043 13.6054 5.79289 13.7929C5.60536 13.9804 5.5 14.2348 5.5 14.5C5.5 14.7652 5.60536 15.0196 5.79289 15.2071C5.98043 15.3946 6.23478 15.5 6.5 15.5C6.76522 15.5 7.01957 15.3946 7.20711 15.2071C7.39464 15.0196 7.5 14.7652 7.5 14.5C7.5 14.2348 7.39464 13.9804 7.20711 13.7929C7.01957 13.6054 6.76522 13.5 6.5 13.5Z"
        fill="#EE3E54"
      />
      <path
        d="M38.5 6C38.3674 6 38.2402 6.05268 38.1464 6.14645C38.0527 6.24021 38 6.36739 38 6.5C38 6.63261 38.0527 6.75979 38.1464 6.85355C38.2402 6.94732 38.3674 7 38.5 7C38.6326 7 38.7598 6.94732 38.8536 6.85355C38.9473 6.75979 39 6.63261 39 6.5C39 6.36739 38.9473 6.24021 38.8536 6.14645C38.7598 6.05268 38.6326 6 38.5 6Z"
        fill="#F1BC19"
      />
      <path
        d="M25 6.5C20.0935 6.5 15.3879 8.4491 11.9185 11.9185C8.4491 15.3879 6.5 20.0935 6.5 25C6.5 29.9065 8.4491 34.6121 11.9185 38.0815C15.3879 41.5509 20.0935 43.5 25 43.5C29.9065 43.5 34.6121 41.5509 38.0815 38.0815C41.5509 34.6121 43.5 29.9065 43.5 25C43.5 20.0935 41.5509 15.3879 38.0815 11.9185C34.6121 8.4491 29.9065 6.5 25 6.5Z"
        fill="#FCE0A2"
      />
      <path
        d="M41.5 5.5C40.9696 5.5 40.4609 5.71071 40.0858 6.08579C39.7107 6.46086 39.5 6.96957 39.5 7.5C39.5 8.03043 39.7107 8.53914 40.0858 8.91421C40.4609 9.28929 40.9696 9.5 41.5 9.5C42.0304 9.5 42.5391 9.28929 42.9142 8.91421C43.2893 8.53914 43.5 8.03043 43.5 7.5C43.5 6.96957 43.2893 6.46086 42.9142 6.08579C42.5391 5.71071 42.0304 5.5 41.5 5.5Z"
        fill="#F1BC19"
      />
      <path
        d="M43.5 11C43.2348 11 42.9804 11.1054 42.7929 11.2929C42.6054 11.4804 42.5 11.7348 42.5 12C42.5 12.2652 42.6054 12.5196 42.7929 12.7071C42.9804 12.8946 43.2348 13 43.5 13C43.7652 13 44.0196 12.8946 44.2071 12.7071C44.3946 12.5196 44.5 12.2652 44.5 12C44.5 11.7348 44.3946 11.4804 44.2071 11.2929C44.0196 11.1054 43.7652 11 43.5 11Z"
        fill="#EE3E54"
      />
      <path
        d="M40.5 37C40.2348 37 39.9804 37.1054 39.7929 37.2929C39.6054 37.4804 39.5 37.7348 39.5 38C39.5 38.2652 39.6054 38.5196 39.7929 38.7071C39.9804 38.8946 40.2348 39 40.5 39C40.7652 39 41.0196 38.8946 41.2071 38.7071C41.3946 38.5196 41.5 38.2652 41.5 38C41.5 37.7348 41.3946 37.4804 41.2071 37.2929C41.0196 37.1054 40.7652 37 40.5 37ZM7.5 29.5C6.96957 29.5 6.46086 29.7107 6.08579 30.0858C5.71071 30.4609 5.5 30.9696 5.5 31.5C5.5 32.0304 5.71071 32.5391 6.08579 32.9142C6.46086 33.2893 6.96957 33.5 7.5 33.5C8.03043 33.5 8.53914 33.2893 8.91421 32.9142C9.28929 32.5391 9.5 32.0304 9.5 31.5C9.5 30.9696 9.28929 30.4609 8.91421 30.0858C8.53914 29.7107 8.03043 29.5 7.5 29.5Z"
        fill="#FBCD59"
      />
      <path
        d="M12.5 42.5C12.2348 42.5 11.9804 42.6054 11.7929 42.7929C11.6054 42.9804 11.5 43.2348 11.5 43.5C11.5 43.7652 11.6054 44.0196 11.7929 44.2071C11.9804 44.3946 12.2348 44.5 12.5 44.5C12.7652 44.5 13.0196 44.3946 13.2071 44.2071C13.3946 44.0196 13.5 43.7652 13.5 43.5C13.5 43.2348 13.3946 42.9804 13.2071 42.7929C13.0196 42.6054 12.7652 42.5 12.5 42.5Z"
        fill="#EE3E54"
      />
      <path
        d="M9.25 25.5C8.91848 25.5 8.60054 25.6317 8.36612 25.8661C8.1317 26.1005 8 26.4185 8 26.75C8 27.0815 8.1317 27.3995 8.36612 27.6339C8.60054 27.8683 8.91848 28 9.25 28C9.58152 28 9.89946 27.8683 10.1339 27.6339C10.3683 27.3995 10.5 27.0815 10.5 26.75C10.5 26.4185 10.3683 26.1005 10.1339 25.8661C9.89946 25.6317 9.58152 25.5 9.25 25.5Z"
        fill="white"
      />
      <path
        d="M10.5 33C10.3674 33 10.2402 33.0527 10.1464 33.1464C10.0527 33.2402 10 33.3674 10 33.5C10 33.6326 10.0527 33.7598 10.1464 33.8536C10.2402 33.9473 10.3674 34 10.5 34C10.6326 34 10.7598 33.9473 10.8536 33.8536C10.9473 33.7598 11 33.6326 11 33.5C11 33.3674 10.9473 33.2402 10.8536 33.1464C10.7598 33.0527 10.6326 33 10.5 33Z"
        fill="#F1BC19"
      />
      <path
        d="M40 16.5C39.8674 16.5 39.7402 16.5527 39.6464 16.6464C39.5527 16.7402 39.5 16.8674 39.5 17C39.5 17.1326 39.5527 17.2598 39.6464 17.3536C39.7402 17.4473 39.8674 17.5 40 17.5C40.1326 17.5 40.2598 17.4473 40.3536 17.3536C40.4473 17.2598 40.5 17.1326 40.5 17C40.5 16.8674 40.4473 16.7402 40.3536 16.6464C40.2598 16.5527 40.1326 16.5 40 16.5Z"
        fill="white"
      />
      <path
        d="M25 12.8125C23.4077 12.8125 21.831 13.1261 20.36 13.7355C18.8889 14.3448 17.5522 15.2379 16.4263 16.3638C15.3004 17.4897 14.4073 18.8264 13.798 20.2975C13.1886 21.7685 12.875 23.3452 12.875 24.9375C12.875 26.5298 13.1886 28.1065 13.798 29.5775C14.4073 31.0486 15.3004 32.3853 16.4263 33.5112C17.5522 34.6371 18.8889 35.5302 20.36 36.1395C21.831 36.7489 23.4077 37.0625 25 37.0625C26.5923 37.0625 28.169 36.7489 29.64 36.1395C31.1111 35.5302 32.4478 34.6371 33.5737 33.5112C34.6996 32.3853 35.5927 31.0486 36.202 29.5775C36.8114 28.1065 37.125 26.5298 37.125 24.9375C37.125 23.3452 36.8114 21.7685 36.202 20.2975C35.5927 18.8264 34.6996 17.4897 33.5737 16.3638C32.4478 15.2379 31.1111 14.3448 29.64 13.7355C28.169 13.1261 26.5923 12.8125 25 12.8125Z"
        fill="#78A2D2"
      />
      <path
        d="M34.082 29.7225C34.0455 29.7225 34.008 29.714 33.9725 29.697C33.8485 29.6365 33.797 29.487 33.8575 29.363C33.9235 29.2275 33.9855 29.0915 34.045 28.954C34.275 28.42 34.458 27.861 34.5885 27.295C34.6195 27.16 34.755 27.0765 34.8885 27.1075C35.023 27.139 35.107 27.273 35.076 27.4075C34.9385 28.003 34.746 28.5905 34.504 29.1525C34.4415 29.297 34.376 29.44 34.3065 29.582C34.2635 29.671 34.1745 29.7225 34.082 29.7225Z"
        fill="#472B29"
      />
      <path
        d="M35.132 26.1679C35.1245 26.1679 35.117 26.1674 35.1095 26.1669C34.972 26.1549 34.8705 26.0329 34.883 25.8954C34.9025 25.6809 34.9145 25.4669 34.92 25.2524C34.9535 23.9194 34.725 22.6159 34.241 21.3764C34.1905 21.2479 34.2545 21.1029 34.383 21.0529C34.5125 21.0009 34.6565 21.0654 34.707 21.1949C35.2155 22.4959 35.4555 23.8654 35.42 25.2649C35.4145 25.4904 35.4015 25.7154 35.381 25.9409C35.369 26.0704 35.26 26.1679 35.132 26.1679Z"
        fill="#472B29"
      />
      <path
        d="M17.5535 18.2661C17.492 18.2661 17.431 18.2436 17.383 18.1986C17.282 18.1046 17.277 17.9461 17.371 17.8456C19.0705 16.0246 21.3705 14.8756 23.846 14.6081C23.9845 14.5966 24.1065 14.6931 24.1215 14.8296C24.1365 14.9666 24.037 15.0901 23.9 15.1051C21.5435 15.3596 19.3545 16.4536 17.7365 18.1861C17.6875 18.2396 17.6205 18.2661 17.5535 18.2661Z"
        fill="#472B29"
      />
      <path
        d="M18.069 32.6421C18.0075 32.6421 17.9465 32.6196 17.8985 32.5746C14.3465 29.2586 13.538 24.0056 15.9315 19.8006C16 19.6796 16.1525 19.6381 16.2725 19.7066C16.3925 19.7751 16.4345 19.9276 16.366 20.0476C14.0875 24.0506 14.858 29.0516 18.24 32.2091C18.341 32.3031 18.346 32.4616 18.252 32.5621C18.2025 32.6151 18.1355 32.6421 18.069 32.6421Z"
        fill="#472B29"
      />
      <path
        d="M29.4445 34.3845C29.3515 34.3845 29.262 34.3325 29.219 34.243C29.159 34.119 29.211 33.9695 29.3355 33.9095C30.4365 33.3785 31.4215 32.652 32.2635 31.7515C32.603 31.387 32.917 30.996 33.1965 30.589C33.2745 30.4755 33.431 30.4465 33.544 30.5245C33.658 30.6025 33.687 30.758 33.6085 30.872C33.315 31.2995 32.9855 31.7105 32.629 32.092C31.7445 33.039 30.71 33.802 29.553 34.3595C29.518 34.3765 29.481 34.3845 29.4445 34.3845Z"
        fill="#472B29"
      />
      <path
        d="M23.229 36.7502V28.2502H20.2185V25.2612H23.229V22.1532C23.1605 19.3647 25.3085 16.6522 30.281 18.1562L30.2705 20.7917L28.5165 20.7807C27.167 20.7807 26.7025 21.2122 26.7025 22.1532V25.2612H30.281L29.652 28.2502H26.7025V36.7502"
        fill="white"
      />
      <path
        d="M26.9525 36.7501H26.4525V28.0001H29.449L29.973 25.5111H26.4525V22.1531C26.4525 21.0311 27.089 20.5306 28.5165 20.5306L30.0215 20.5401L30.0305 18.3431C27.8935 17.7331 26.141 17.8866 24.9535 18.7911C23.9825 19.5306 23.4445 20.7541 23.479 22.1471V25.5116H20.4685V28.0001H23.479V36.7501H22.979V28.5001H19.9685V25.0111H22.979V22.1531C22.941 20.6036 23.55 19.2306 24.6505 18.3926C25.5945 17.6736 27.3495 17.0086 30.3535 17.9166L30.532 17.9701L30.52 21.0426L28.5155 21.0306C27.2085 21.0306 26.953 21.4421 26.953 22.1531V25.0111H30.5895L29.855 28.5001H26.9525V36.7501Z"
        fill="#472B29"
      />
      <path
        d="M25 37.4124C18.1215 37.4124 12.525 31.8164 12.525 24.9374C12.525 18.0584 18.1215 12.4624 25 12.4624C31.8785 12.4624 37.475 18.0584 37.475 24.9374C37.475 31.8164 31.8785 37.4124 25 37.4124ZM25 13.1624C18.5075 13.1624 13.225 18.4444 13.225 24.9374C13.225 31.4304 18.5075 36.7124 25 36.7124C31.4925 36.7124 36.775 31.4304 36.775 24.9374C36.775 18.4444 31.4925 13.1624 25 13.1624Z"
        fill="#472B29"
      />
    </svg>