<svg
      width="50"
      height="50"
      viewBox="0 0 50 50"
      fill="none"
      xmlns="http://www.w3.org/2000/svg"
    >
      <path
        d="M43.6075 28.355C44.175 27.2775 44.5 26.0525 44.5 24.75C44.5 21.4395 42.4205 18.6215 39.4995 17.511C39.4995 17.5075 39.5 17.504 39.5 17.5C39.5 11.701 34.799 7 29 7C24.108 7 20.0095 10.3505 18.8435 14.8785C18.1055 14.636 17.319 14.5 16.5 14.5C12.654 14.5 9.4885 17.3965 9.055 21.126C6.453 21.6765 4.5 23.9845 4.5 26.75C4.5 29.9255 7.0745 32.5 10.25 32.5C10.3385 32.5 10.426 32.494 10.513 32.489C10.511 32.5765 10.5 32.662 10.5 32.75C10.5 38.411 15.089 43 20.75 43C23.9685 43 26.8375 41.514 28.717 39.193C29.806 40.3055 31.32 41 33 41C35.325 41 37.337 39.675 38.333 37.741C38.859 37.9085 39.4185 38 40 38C43.0375 38 45.5 35.5375 45.5 32.5C45.5 30.8445 44.765 29.3635 43.6075 28.355Z"
        fill="#C7EDE6"
      />
      <path
        d="M38.75 30.25V30.5H40.25V30.25C40.25 30.25 42.371 30.25 43 30.25C44.2425 30.25 45.25 29.2425 45.25 28C45.25 26.8335 44.359 25.8855 43.2225 25.7725C43.2335 25.682 43.25 25.5935 43.25 25.5C43.25 24.2575 42.2425 23.25 41 23.25C40.281 23.25 39.6485 23.593 39.2365 24.118C39.1665 22.8 38.0855 21.75 36.75 21.75C35.3695 21.75 34.25 22.8695 34.25 24.25C34.25 24.473 34.2885 24.685 34.3435 24.891C34.0225 24.5025 33.543 24.25 33 24.25C32.1095 24.25 31.383 24.9175 31.2725 25.7775C31.182 25.7665 31.0935 25.75 31 25.75C29.7575 25.75 28.75 26.7575 28.75 28C28.75 29.2425 29.7575 30.25 31 30.25C32.2425 30.25 35.75 30.25 35.75 30.25H38.75Z"
        fill="#FDFCEF"
      />
      <path
        d="M36.75 21.5C35.2335 21.5 34 22.7335 34 24.25C34 24.258 34 24.2655 34 24.2735C33.699 24.096 33.355 24 33 24C32.0845 24 31.2945 24.6305 31.071 25.5025C31.0475 25.501 31.024 25.5 31 25.5C29.6215 25.5 28.5 26.6215 28.5 28C28.5 29.3785 29.6215 30.5 31 30.5H38.75C38.888 30.5 39 30.388 39 30.25C39 30.112 38.888 30 38.75 30H31C29.897 30 29 29.103 29 28C29 26.897 29.897 26 31 26C31.0585 26 31.115 26.0085 31.1715 26.016L31.242 26.0255C31.2525 26.027 31.2625 26.0275 31.273 26.0275C31.396 26.0275 31.504 25.935 31.5205 25.809C31.616 25.0625 32.252 24.5 33 24.5C33.4425 24.5 33.8615 24.7005 34.1505 25.05C34.1995 25.109 34.271 25.141 34.3435 25.141C34.3825 25.141 34.4215 25.132 34.4575 25.113C34.562 25.0595 34.6145 24.94 34.5845 24.8265C34.527 24.609 34.5 24.426 34.5 24.25C34.5 23.0095 35.5095 22 36.75 22C37.9405 22 38.9235 22.936 38.987 24.1315C38.9925 24.2355 39.062 24.325 39.1615 24.3565C39.1865 24.3645 39.212 24.3685 39.2375 24.3685C39.3125 24.3685 39.3855 24.334 39.4335 24.2725C39.819 23.7815 40.3895 23.5 41 23.5C42.103 23.5 43 24.397 43 25.5C43 25.5585 42.9915 25.615 42.984 25.6715L42.9745 25.742C42.9665 25.809 42.9855 25.876 43.0275 25.9285C43.0695 25.981 43.131 26.0145 43.1975 26.021C44.2255 26.1235 45 26.9745 45 28C45 29.103 44.103 30 43 30H40.25C40.112 30 40 30.112 40 30.25C40 30.388 40.112 30.5 40.25 30.5H43C44.3785 30.5 45.5 29.3785 45.5 28C45.5 26.8015 44.6555 25.7935 43.4985 25.5615C43.4995 25.541 43.5 25.5205 43.5 25.5C43.5 24.1215 42.3785 23 41 23C40.412 23 39.8535 23.208 39.4085 23.582C39.1095 22.38 38.0275 21.5 36.75 21.5Z"
        fill="#472B29"
      />
      <path
        d="M36 25C35.2985 25 34.6955 25.4995 34.5435 26.1705C34.36 26.0595 34.1505 26 33.9375 26C33.3365 26 32.8385 26.4485 32.761 27.034C32.6595 27.011 32.563 27 32.469 27C31.7045 27 31.0635 27.6 31.01 28.366C31.005 28.435 31.057 28.495 31.1255 28.5C31.1285 28.5 31.1315 28.5 31.1345 28.5C31.1995 28.5 31.2545 28.4495 31.259 28.384C31.3035 27.7485 31.8345 27.25 32.4685 27.25C32.583 27.25 32.7035 27.271 32.8375 27.3135C32.8485 27.317 32.86 27.3185 32.871 27.3185C32.8985 27.3185 32.926 27.3085 32.949 27.2915C32.981 27.2685 33 27.2275 33 27.1875C33 26.6705 33.4205 26.25 33.9375 26.25C34.161 26.25 34.38 26.334 34.553 26.4865C34.5765 26.507 34.606 26.518 34.6355 26.518C34.6515 26.518 34.667 26.515 34.682 26.5085C34.726 26.491 34.756 26.45 34.7595 26.4025C34.8115 25.756 35.356 25.25 36 25.25C36.104 25.25 36.2125 25.267 36.341 25.3035C36.3525 25.307 36.3645 25.3085 36.376 25.3085C36.4305 25.3085 36.4795 25.272 36.4955 25.2175C36.5145 25.151 36.476 25.082 36.4095 25.063C36.2585 25.02 36.128 25 36 25ZM42.9415 25.75C42.2785 25.75 41.6875 26.1985 41.5045 26.841C41.4855 26.9075 41.524 26.9765 41.5905 26.9955C41.6025 26.9985 41.614 27 41.625 27C41.6795 27 41.7295 26.964 41.745 26.909C41.8975 26.374 42.3895 26 42.9415 26C43 26 43.0565 26.007 43.1125 26.0145C43.1185 26.0155 43.124 26.016 43.13 26.016C43.1905 26.016 43.2445 25.97 43.253 25.9075C43.2625 25.839 43.2145 25.776 43.146 25.767C43.079 25.758 43.011 25.75 42.9415 25.75Z"
        fill="#472B29"
      />
      <path
        d="M7.75 25.5H2.75C2.612 25.5 2.5 25.388 2.5 25.25C2.5 25.112 2.612 25 2.75 25H7.75C7.888 25 8 25.112 8 25.25C8 25.388 7.8885 25.5 7.75 25.5ZM9.25 25.5H8.75C8.612 25.5 8.5 25.388 8.5 25.25C8.5 25.112 8.612 25 8.75 25H9.25C9.388 25 9.5 25.112 9.5 25.25C9.5 25.388 9.3885 25.5 9.25 25.5ZM11.7455 26.5H7.25C7.112 26.5 7 26.388 7 26.25C7 26.112 7.112 26 7.25 26H11.7455C11.8835 26 11.9955 26.112 11.9955 26.25C11.9955 26.388 11.8835 26.5 11.7455 26.5ZM6.25 26.5H5.75C5.612 26.5 5.5 26.388 5.5 26.25C5.5 26.112 5.612 26 5.75 26H6.25C6.388 26 6.5 26.112 6.5 26.25C6.5 26.388 6.3885 26.5 6.25 26.5ZM4.75 26.5H3.75C3.612 26.5 3.5 26.388 3.5 26.25C3.5 26.112 3.612 26 3.75 26H4.75C4.888 26 5 26.112 5 26.25C5 26.388 4.8885 26.5 4.75 26.5ZM7.75 27.5H6.75C6.612 27.5 6.5 27.388 6.5 27.25C6.5 27.112 6.612 27 6.75 27H7.75C7.888 27 8 27.112 8 27.25C8 27.388 7.888 27.5 7.75 27.5ZM9.25 23C9.1615 23 8.8385 23 8.75 23C8.612 23 8.5 23.112 8.5 23.25C8.5 23.388 8.612 23.5 8.75 23.5C8.8385 23.5 9.1615 23.5 9.25 23.5C9.388 23.5 9.5 23.388 9.5 23.25C9.5 23.112 9.388 23 9.25 23ZM9.25 24C9.1615 24 6.8385 24 6.75 24C6.612 24 6.5 24.112 6.5 24.25C6.5 24.388 6.612 24.5 6.75 24.5C6.8385 24.5 9.1615 24.5 9.25 24.5C9.388 24.5 9.5 24.388 9.5 24.25C9.5 24.112 9.388 24 9.25 24ZM11.75 25C11.6615 25 10.3385 25 10.25 25C10.112 25 10 25.112 10 25.25C10 25.388 10.112 25.5 10.25 25.5C10.3385 25.5 11.6615 25.5 11.75 25.5C11.888 25.5 12 25.388 12 25.25C12 25.112 11.888 25 11.75 25Z"
        fill="white"
      />
      <path
        d="M36.25 12H31.25C31.112 12 31 11.888 31 11.75C31 11.612 31.112 11.5 31.25 11.5H36.25C36.388 11.5 36.5 11.612 36.5 11.75C36.5 11.888 36.388 12 36.25 12ZM38.25 12H37.25C37.112 12 37 11.888 37 11.75C37 11.612 37.112 11.5 37.25 11.5H38.25C38.388 11.5 38.5 11.612 38.5 11.75C38.5 11.888 38.388 12 38.25 12ZM40.75 13H35.75C35.612 13 35.5 12.888 35.5 12.75C35.5 12.612 35.612 12.5 35.75 12.5H40.75C40.888 12.5 41 12.612 41 12.75C41 12.888 40.8885 13 40.75 13ZM34.75 13H34.25C34.112 13 34 12.888 34 12.75C34 12.612 34.112 12.5 34.25 12.5H34.75C34.888 12.5 35 12.612 35 12.75C35 12.888 34.888 13 34.75 13ZM33.235 13H32.25C32.112 13 32 12.888 32 12.75C32 12.612 32.112 12.5 32.25 12.5H33.235C33.373 12.5 33.485 12.612 33.485 12.75C33.485 12.888 33.373 13 33.235 13ZM37.75 11H35.25C35.112 11 35 10.888 35 10.75C35 10.612 35.112 10.5 35.25 10.5H37.75C37.888 10.5 38 10.612 38 10.75C38 10.888 37.8885 11 37.75 11ZM36.25 14H35.25C35.112 14 35 13.888 35 13.75C35 13.612 35.112 13.5 35.25 13.5H36.25C36.388 13.5 36.5 13.612 36.5 13.75C36.5 13.888 36.388 14 36.25 14Z"
        fill="white"
      />
      <path
        d="M26 13.375C22.9169 13.375 19.96 14.5998 17.7799 16.7799C15.5998 18.96 14.375 21.9169 14.375 25C14.375 28.0831 15.5998 31.04 17.7799 33.2201C19.96 35.4002 22.9169 36.625 26 36.625C29.0831 36.625 32.04 35.4002 34.2201 33.2201C36.4002 31.04 37.625 28.0831 37.625 25C37.625 21.9169 36.4002 18.96 34.2201 16.7799C32.04 14.5998 29.0831 13.375 26 13.375Z"
        fill="#A3A3CD"
      />
      <path
        d="M26 36.9749C19.397 36.9749 14.025 31.6029 14.025 24.9999C14.025 18.3969 19.397 13.0249 26 13.0249C32.603 13.0249 37.975 18.3969 37.975 24.9999C37.975 31.6029 32.603 36.9749 26 36.9749ZM26 13.7249C19.783 13.7249 14.725 18.7824 14.725 24.9999C14.725 31.2174 19.783 36.2749 26 36.2749C32.217 36.2749 37.275 31.2174 37.275 24.9999C37.275 18.7824 32.217 13.7249 26 13.7249Z"
        fill="#472B29"
      />
      <path
        d="M26 15.25C24.7196 15.25 23.4518 15.5022 22.2688 15.9922C21.0859 16.4822 20.0111 17.2003 19.1057 18.1057C18.2003 19.0111 17.4822 20.0859 16.9922 21.2688C16.5022 22.4518 16.25 23.7196 16.25 25C16.25 26.2804 16.5022 27.5482 16.9922 28.7312C17.4822 29.9141 18.2003 30.9889 19.1057 31.8943C20.0111 32.7997 21.0859 33.5178 22.2688 34.0078C23.4518 34.4978 24.7196 34.75 26 34.75C27.2804 34.75 28.5482 34.4978 29.7312 34.0078C30.9141 33.5178 31.9889 32.7997 32.8943 31.8943C33.7997 30.9889 34.5178 29.9141 35.0078 28.7312C35.4978 27.5482 35.75 26.2804 35.75 25C35.75 23.7196 35.4978 22.4518 35.0078 21.2688C34.5178 20.0859 33.7997 19.0111 32.8943 18.1057C31.9889 17.2003 30.9141 16.4822 29.7312 15.9922C28.5482 15.5022 27.2804 15.25 26 15.25Z"
        fill="#565FA1"
      />
      <path
        d="M35.3115 22.4935C35.2045 22.4935 35.1054 22.4245 35.0724 22.317C35.0304 22.1795 34.985 22.043 34.937 21.909C34.7495 21.385 34.5125 20.8745 34.233 20.391C34.1635 20.2715 34.2045 20.1185 34.324 20.0495C34.444 19.9785 34.5965 20.0205 34.6655 20.141C34.96 20.6505 35.2095 21.1885 35.407 21.7395C35.458 21.881 35.5054 22.025 35.5504 22.1695C35.5909 22.302 35.5169 22.4415 35.3849 22.482C35.3604 22.49 35.3355 22.4935 35.3115 22.4935Z"
        fill="#472B29"
      />
      <path
        d="M26 35.0175C20.4765 35.0175 15.9825 30.537 15.9825 25.0295C15.9825 19.5225 20.476 15.042 26 15.042C28.867 15.042 31.602 16.2705 33.5035 18.412C33.647 18.5735 33.7855 18.7405 33.919 18.912C34.0035 19.021 33.984 19.178 33.8755 19.2625C33.767 19.349 33.6095 19.3275 33.5245 19.2185C33.398 19.056 33.2665 18.8975 33.13 18.744C31.323 16.709 28.7245 15.542 26.0005 15.542C20.7525 15.542 16.483 19.798 16.483 25.0295C16.483 30.261 20.752 34.5175 26 34.5175C31.248 34.5175 35.5175 30.261 35.5175 25.0295C35.5175 24.552 35.4815 24.0735 35.411 23.6065C35.3905 23.47 35.4845 23.3425 35.621 23.322C35.758 23.3005 35.885 23.395 35.9055 23.5315C35.98 24.023 36.0175 24.527 36.0175 25.0295C36.0175 30.537 31.5235 35.0175 26 35.0175Z"
        fill="#472B29"
      />
      <path
        d="M18.25 36.75C18.25 36.75 19.0335 36.75 20 36.75C20.9665 36.75 21.75 35.9665 21.75 35C21.75 34.1095 21.0825 33.383 20.2225 33.2725C20.2365 33.183 20.25 33.0935 20.25 33C20.25 32.0335 19.4665 31.25 18.5 31.25C17.984 31.25 17.525 31.4775 17.205 31.8325C17.013 30.9285 16.2115 30.25 15.25 30.25C14.1455 30.25 13.25 31.1455 13.25 32.25C13.25 32.3455 13.265 32.437 13.278 32.529C13.064 32.357 12.796 32.25 12.5 32.25C11.886 32.25 11.3775 32.6935 11.2725 33.2775C11.183 33.2635 11.0935 33.25 11 33.25C10.0335 33.25 9.25 34.0335 9.25 35C9.25 35.9665 10.0335 36.75 11 36.75C11.9665 36.75 14.75 36.75 14.75 36.75V37H18.25V36.75Z"
        fill="#FDFCEF"
      />
      <path
        d="M19.125 34.5001C19.056 34.5001 19 34.4441 19 34.3751C19 33.7636 19.4975 33.2661 20.109 33.2661C20.126 33.2706 20.4775 33.2656 20.731 33.3341C20.7975 33.3521 20.837 33.4206 20.819 33.4871C20.801 33.5541 20.7325 33.5936 20.666 33.5751C20.444 33.5151 20.116 33.5151 20.1095 33.5161C19.6355 33.5161 19.25 33.9016 19.25 34.3751C19.25 34.4441 19.194 34.5001 19.125 34.5001ZM15.75 36.5001C15.6837 36.5001 15.6201 36.5265 15.5732 36.5733C15.5263 36.6202 15.5 36.6838 15.5 36.7501C15.5 36.8164 15.5263 36.88 15.5732 36.9269C15.6201 36.9738 15.6837 37.0001 15.75 37.0001C15.8163 37.0001 15.8799 36.9738 15.9268 36.9269C15.9737 36.88 16 36.8164 16 36.7501C16 36.6838 15.9737 36.6202 15.9268 36.5733C15.8799 36.5265 15.8163 36.5001 15.75 36.5001Z"
        fill="#472B29"
      />
      <path
        d="M20 37H18.25C18.112 37 18 36.888 18 36.75C18 36.612 18.112 36.5 18.25 36.5H20C20.827 36.5 21.5 35.827 21.5 35C21.5 34.252 20.9375 33.616 20.191 33.5205C20.124 33.5115 20.0635 33.4765 20.023 33.4225C19.9825 33.3685 19.9655 33.3005 19.976 33.234C19.9875 33.157 20 33.08 20 33C20 32.173 19.327 31.5 18.5 31.5C18.075 31.5 17.681 31.6775 17.3905 32C17.328 32.0695 17.23 32.099 17.1405 32.074C17.0495 32.0495 16.98 31.9765 16.9605 31.8845C16.79 31.0825 16.0705 30.5 15.25 30.5C14.285 30.5 13.5 31.285 13.5 32.25C13.5 32.3215 13.5105 32.39 13.5205 32.459C13.535 32.5605 13.489 32.678 13.3995 32.729C13.31 32.78 13.2015 32.788 13.1215 32.724C12.939 32.5775 12.7245 32.5 12.5 32.5C12.017 32.5 11.604 32.8455 11.5185 33.322C11.4945 33.4555 11.3705 33.545 11.234 33.5245C11.157 33.5125 11.08 33.5 11 33.5C10.173 33.5 9.5 34.173 9.5 35C9.5 35.827 10.173 36.5 11 36.5H14.75C14.888 36.5 15 36.612 15 36.75C15 36.888 14.888 37 14.75 37H11C9.897 37 9 36.103 9 35C9 33.897 9.897 33 11 33C11.0295 33 11.058 33.001 11.087 33.003C11.294 32.41 11.8555 32 12.5 32C12.6745 32 12.8445 32.0305 13.0055 32.09C13.088 30.9235 14.063 30 15.25 30C16.1655 30 16.983 30.5635 17.3265 31.387C17.6665 31.138 18.0775 31 18.5 31C19.603 31 20.5 31.897 20.5 33C20.5 33.024 20.4995 33.0475 20.498 33.071C21.3695 33.295 22 34.0845 22 35C22 36.103 21.103 37 20 37Z"
        fill="#472B29"
      />
      <path
        d="M17.25 36.5C17.1705 36.5 16.8295 36.5 16.75 36.5C16.612 36.5 16.5 36.612 16.5 36.75C16.5 36.888 16.612 37 16.75 37C16.8295 37 17.1705 37 17.25 37C17.388 37 17.5 36.888 17.5 36.75C17.5 36.612 17.388 36.5 17.25 36.5Z"
        fill="#472B29"
      />
      <path
        d="M31.7699 20.915C31.9124 20.1225 31.8274 19.1655 31.5074 18.2065C29.8974 18.2065 28.6569 19.3015 28.4454 19.5005H23.8384C23.6264 19.302 22.3864 18.2065 20.7764 18.2065C20.4884 19.0705 20.3914 19.9315 20.4779 20.6735C19.5719 21.496 18.9999 22.6795 18.9999 24C18.9999 26.4855 21.0144 28.5 23.4999 28.5H24.4174C23.6969 28.83 23.1709 29.5 23.0394 30.3075C22.2299 30.39 21.2504 30.315 20.7764 29.604C19.8914 28.2765 19.4489 28.2765 19.0064 28.2765C18.5639 28.2765 18.5639 28.719 19.0064 29.1615C19.4489 29.604 19.4489 29.604 19.8914 30.489C20.2559 31.218 21.1974 32.0435 23.0004 31.8195V33.485C23.0004 33.811 23.0089 34.0495 23.1254 34.333C24.2089 34.708 26.2734 34.989 28.8344 34.3485C28.9374 34.0795 28.9999 33.7905 28.9999 33.485V30.6975C28.9999 29.7195 28.4169 28.882 27.5824 28.4995H28.4999C30.9854 28.4995 32.9999 26.485 32.9999 23.9995C32.9999 22.8045 32.5304 21.7205 31.7699 20.915Z"
        fill="#FEFDEF"
      />
      <path
        d="M25.8495 34.9805C24.3949 34.9805 23.4105 34.697 23.0435 34.57C22.976 34.5465 22.9214 34.4955 22.8939 34.429C22.7604 34.1045 22.7499 33.8335 22.7499 33.4855V32.0955C20.6644 32.244 19.8669 31.0005 19.6674 30.6015C19.2429 29.7525 19.2429 29.7525 18.8294 29.339C18.4854 28.995 18.349 28.6225 18.4645 28.344C18.548 28.143 18.7455 28.027 19.006 28.027C19.6025 28.027 20.0934 28.13 20.9839 29.466C21.3614 30.032 22.1619 30.1145 22.8309 30.075C22.9539 29.5625 23.2234 29.104 23.6009 28.751H23.4999C20.8809 28.751 18.7499 26.62 18.7499 24.001C18.7499 22.712 19.2829 21.471 20.2164 20.5755C20.1484 19.8115 20.2589 18.968 20.5394 18.1275C20.5734 18.0255 20.669 17.9565 20.7765 17.9565C22.3415 17.9565 23.5659 18.923 23.9354 19.2505H28.349C28.7185 18.923 29.9429 17.9565 31.5074 17.9565C31.6149 17.9565 31.7104 18.0255 31.7444 18.1275C32.0559 19.0605 32.1579 20.0165 32.0364 20.836C32.8199 21.7095 33.2499 22.828 33.2499 24C33.2499 26.619 31.1189 28.75 28.4999 28.75H28.3994C28.9319 29.247 29.2499 29.95 29.2499 30.698V33.4855C29.2499 33.802 29.1884 34.122 29.0674 34.438C29.0384 34.514 28.974 34.5715 28.8945 34.5915C27.7354 34.8815 26.71 34.9805 25.8495 34.9805ZM23.318 34.1345C23.9875 34.346 25.9019 34.7955 28.6434 34.138C28.7144 33.9195 28.7499 33.701 28.7499 33.4855V30.698C28.7499 29.854 28.2509 29.081 27.4784 28.728C27.3714 28.6785 27.3129 28.562 27.3379 28.447C27.3629 28.3325 27.4644 28.25 27.5824 28.25H28.4999C30.8434 28.25 32.7499 26.3435 32.7499 24C32.7499 22.915 32.3374 21.8805 31.5879 21.0865C31.5334 21.029 31.5099 20.949 31.5239 20.871C31.6524 20.1555 31.5819 19.306 31.3259 18.461C29.9074 18.5375 28.8259 19.486 28.6159 19.682C28.5699 19.7255 28.5084 19.75 28.4449 19.75H23.8379C23.7744 19.75 23.7129 19.7255 23.6669 19.682C23.4574 19.4855 22.3755 18.5375 20.957 18.461C20.7275 19.22 20.6469 19.971 20.7259 20.644C20.7354 20.724 20.7054 20.8035 20.6459 20.858C19.7589 21.664 19.2499 22.8095 19.2499 24C19.2499 26.3435 21.1564 28.25 23.4999 28.25H24.4174C24.5349 28.25 24.6365 28.332 24.6615 28.447C24.6865 28.5615 24.6284 28.6785 24.5214 28.7275C23.8639 29.029 23.4019 29.6345 23.2859 30.348C23.2674 30.46 23.177 30.5455 23.0645 30.5565C21.867 30.678 21.0035 30.3965 20.568 29.743C19.757 28.5265 19.392 28.5265 19.006 28.5265C18.9425 28.5265 18.9214 28.541 18.9214 28.541C18.9119 28.5705 18.9485 28.75 19.183 28.985C19.6545 29.456 19.6714 29.491 20.1149 30.3775C20.2864 30.72 20.9994 31.8195 22.9694 31.572C23.0404 31.5625 23.1124 31.585 23.1659 31.6325C23.2194 31.68 23.2504 31.748 23.2504 31.82V33.4855C23.2499 33.748 23.255 33.935 23.318 34.1345Z"
        fill="#472B29"
      />
      <path
        d="M31.549 25.4526C31.123 26.3966 30.188 27.1806 28.542 27.3126L31.549 25.4526Z"
        fill="#FEFDEF"
      />
      <path
        d="M28.5415 27.4376C28.477 27.4376 28.4225 27.3876 28.417 27.3226C28.4115 27.2541 28.4625 27.1936 28.5315 27.1881C30.3295 27.0441 31.1025 26.1366 31.4345 25.4016C31.463 25.3381 31.5365 25.3101 31.6 25.3391C31.6625 25.3676 31.691 25.4411 31.6625 25.5041C31.154 26.6311 30.049 27.3176 28.5515 27.4371C28.5485 27.4376 28.545 27.4376 28.5415 27.4376Z"
        fill="#472B29"
      />
      <path
        d="M31.796 23.5823C31.8485 23.9388 31.8475 24.3168 31.782 24.6908L31.796 23.5823Z"
        fill="#FEFDEF"
      />
      <path
        d="M31.782 24.8159C31.7745 24.8159 31.7675 24.8154 31.76 24.8139C31.692 24.8024 31.6465 24.7374 31.6585 24.6694C31.7195 24.3229 31.724 23.9534 31.672 23.6004C31.6615 23.5324 31.709 23.4684 31.777 23.4589C31.8435 23.4499 31.909 23.4959 31.919 23.5644C31.976 23.9484 31.971 24.3349 31.9045 24.7124C31.8945 24.7734 31.8415 24.8159 31.782 24.8159Z"
        fill="#472B29"
      />
      <path
        d="M30.908 21.9094C31.2075 22.1224 31.4505 22.4674 31.612 22.8824L30.908 21.9094Z"
        fill="#FEFDEF"
      />
      <path
        d="M31.612 23.0074C31.562 23.0074 31.515 22.9769 31.4955 22.9279C31.338 22.5234 31.11 22.2069 30.8355 22.0119C30.7795 21.9719 30.766 21.8939 30.806 21.8374C30.8465 21.7809 30.9245 21.7674 30.9805 21.8074C31.2945 22.0309 31.5535 22.3869 31.7285 22.8369C31.7535 22.9014 31.7215 22.9734 31.6575 22.9989C31.6425 23.0044 31.627 23.0074 31.612 23.0074Z"
        fill="#472B29"
      />
    </svg>