<svg
      width="50"
      height="50"
      viewBox="0 0 50 50"
      fill="none"
      xmlns="http://www.w3.org/2000/svg"
    >
      <path
        d="M6.5 15.5C7.05228 15.5 7.5 15.0523 7.5 14.5C7.5 13.9477 7.05228 13.5 6.5 13.5C5.94772 13.5 5.5 13.9477 5.5 14.5C5.5 15.0523 5.94772 15.5 6.5 15.5Z"
        fill="#EE3E54"
      />
      <path
        d="M38.5 7C38.7761 7 39 6.77614 39 6.5C39 6.22386 38.7761 6 38.5 6C38.2239 6 38 6.22386 38 6.5C38 6.77614 38.2239 7 38.5 7Z"
        fill="#F1BC19"
      />
      <path
        d="M25 43.5C35.2173 43.5 43.5 35.2173 43.5 25C43.5 14.7827 35.2173 6.5 25 6.5C14.7827 6.5 6.5 14.7827 6.5 25C6.5 35.2173 14.7827 43.5 25 43.5Z"
        fill="#FCE0A2"
      />
      <path
        d="M41.5 9.5C42.6046 9.5 43.5 8.60457 43.5 7.5C43.5 6.39543 42.6046 5.5 41.5 5.5C40.3954 5.5 39.5 6.39543 39.5 7.5C39.5 8.60457 40.3954 9.5 41.5 9.5Z"
        fill="#F1BC19"
      />
      <path
        d="M43.5 13C44.0523 13 44.5 12.5523 44.5 12C44.5 11.4477 44.0523 11 43.5 11C42.9477 11 42.5 11.4477 42.5 12C42.5 12.5523 42.9477 13 43.5 13Z"
        fill="#EE3E54"
      />
      <path
        d="M40.5 39C41.0523 39 41.5 38.5523 41.5 38C41.5 37.4477 41.0523 37 40.5 37C39.9477 37 39.5 37.4477 39.5 38C39.5 38.5523 39.9477 39 40.5 39Z"
        fill="#FBCD59"
      />
      <path
        d="M7.5 33.5C8.60457 33.5 9.5 32.6046 9.5 31.5C9.5 30.3954 8.60457 29.5 7.5 29.5C6.39543 29.5 5.5 30.3954 5.5 31.5C5.5 32.6046 6.39543 33.5 7.5 33.5Z"
        fill="#FBCD59"
      />
      <path
        d="M12.5 44.5C13.0523 44.5 13.5 44.0523 13.5 43.5C13.5 42.9477 13.0523 42.5 12.5 42.5C11.9477 42.5 11.5 42.9477 11.5 43.5C11.5 44.0523 11.9477 44.5 12.5 44.5Z"
        fill="#EE3E54"
      />
      <path
        d="M9.25 28C9.94036 28 10.5 27.4404 10.5 26.75C10.5 26.0596 9.94036 25.5 9.25 25.5C8.55964 25.5 8 26.0596 8 26.75C8 27.4404 8.55964 28 9.25 28Z"
        fill="white"
      />
      <path
        d="M10.5 34C10.7761 34 11 33.7761 11 33.5C11 33.2239 10.7761 33 10.5 33C10.2239 33 10 33.2239 10 33.5C10 33.7761 10.2239 34 10.5 34Z"
        fill="#F1BC19"
      />
      <path
        d="M40 17.5C40.2761 17.5 40.5 17.2761 40.5 17C40.5 16.7239 40.2761 16.5 40 16.5C39.7239 16.5 39.5 16.7239 39.5 17C39.5 17.2761 39.7239 17.5 40 17.5Z"
        fill="white"
      />
      <path
        d="M36.15 16.8501V33.1501C36.15 34.8051 34.805 36.1501 33.15 36.1501H16.85C15.195 36.1501 13.85 34.8051 13.85 33.1501V16.8501C13.85 15.1951 15.195 13.8501 16.85 13.8501H33.15C34.805 13.8501 36.15 15.1951 36.15 16.8501Z"
        fill="#3231C7"
      />
      <path
        d="M36.15 24.0201V33.1501C36.15 34.8051 34.805 36.1501 33.15 36.1501H16.85C15.195 36.1501 13.85 34.8051 13.85 33.1501V16.8501C13.85 15.1951 15.195 13.8501 16.85 13.8501H25.98C30.3 16.1451 33.855 19.7001 36.15 24.0201Z"
        fill="#7228AD"
      />
      <path
        d="M35 35.5C35 35.505 35 35.505 35 35.51C34.49 35.91 33.85 36.15 33.15 36.15H16.85C15.195 36.15 13.85 34.805 13.85 33.15V16.85C13.85 16.15 14.09 15.51 14.49 15C14.495 15 14.495 15 14.5 15C25.82 15 35 24.18 35 35.5Z"
        fill="#B11E93"
      />
      <path
        d="M31 35.5C31 35.72 30.995 35.935 30.985 36.15H16.85C15.195 36.15 13.85 34.805 13.85 33.15V19.015C14.065 19.005 14.28 19 14.5 19C23.615 19 31 26.385 31 35.5Z"
        fill="#DB1A58"
      />
      <path
        d="M27 35.5C27 35.715 26.995 35.935 26.985 36.15H16.85C15.195 36.15 13.85 34.805 13.85 33.15V23.015C14.065 23.005 14.285 23 14.5 23C21.405 23 27 28.595 27 35.5Z"
        fill="#E4273E"
      />
      <path
        d="M23.5 35.5C23.5 35.72 23.49 35.935 23.475 36.15H16.85C15.195 36.15 13.85 34.805 13.85 33.15V26.525C14.065 26.51 14.28 26.5 14.5 26.5C19.47 26.5 23.5 30.53 23.5 35.5Z"
        fill="#F47C22"
      />
      <path
        d="M20.5 35.5C20.5 35.72 20.49 35.935 20.465 36.15H16.85C15.195 36.15 13.85 34.805 13.85 33.15V29.535C14.065 29.51 14.28 29.5 14.5 29.5C17.815 29.5 20.5 32.185 20.5 35.5Z"
        fill="#EF9922"
      />
      <path
        d="M33.15 36.5H16.85C15.003 36.5 13.5 34.997 13.5 33.15V16.85C13.5 15.003 15.003 13.5 16.85 13.5H33.15C34.997 13.5 36.5 15.003 36.5 16.85V33.15C36.5 34.997 34.997 36.5 33.15 36.5ZM16.85 14.2C15.3885 14.2 14.2 15.3885 14.2 16.85V33.15C14.2 34.611 15.3885 35.8 16.85 35.8H33.15C34.6115 35.8 35.8 34.6115 35.8 33.15V16.85C35.8 15.389 34.6115 14.2 33.15 14.2H16.85Z"
        fill="#472B29"
      />
      <path
        d="M24.995 32.7249C23.004 32.7249 22.263 32.7194 21.506 32.6849C20.812 32.6539 20.2715 32.5494 19.7535 32.3464C19.2505 32.1524 18.857 31.8969 18.477 31.5169C18.1005 31.1399 17.8445 30.7459 17.648 30.2404C17.4505 29.7369 17.346 29.1964 17.3095 28.4879C17.275 27.7254 17.2695 26.9849 17.2695 24.9994C17.2695 23.0174 17.275 22.2784 17.3095 21.5154C17.3405 20.8214 17.445 20.2814 17.6475 19.7634C17.8445 19.2529 18.1 18.8594 18.477 18.4869C18.854 18.1104 19.2475 17.8544 19.754 17.6574C20.2715 17.4549 20.812 17.3509 21.506 17.3189C22.2885 17.2839 23.0385 17.2739 24.995 17.2739C26.952 17.2739 27.7005 17.2839 28.4785 17.3189C29.1725 17.3504 29.713 17.4544 30.2315 17.6574C30.742 17.8544 31.135 18.1099 31.5075 18.4869C31.881 18.8559 32.1385 19.2489 32.342 19.7634C32.5405 20.2864 32.644 20.8274 32.6755 21.5154C32.7105 22.3054 32.7205 23.0544 32.7205 24.9989C32.7205 26.9474 32.7105 27.6974 32.6755 28.4879C32.644 29.1764 32.541 29.7169 32.342 30.2404C32.1385 30.7494 31.8805 31.1434 31.5075 31.5164C31.136 31.8924 30.744 32.1484 30.236 32.3459C29.7115 32.5484 29.1695 32.6529 28.4785 32.6839C27.7215 32.7194 26.982 32.7249 24.995 32.7249ZM24.34 18.7249C22.964 18.7249 22.2085 18.7354 21.5525 18.7644C20.8815 18.7954 20.5115 18.9079 20.264 19.0024C19.9555 19.1234 19.7345 19.2674 19.5015 19.5014C19.268 19.7344 19.124 19.9539 19.005 20.2594C18.9095 20.5084 18.7965 20.8794 18.7655 21.5519C18.7315 22.3049 18.726 22.9994 18.726 24.9954C18.726 26.9954 18.7315 27.6904 18.7655 28.4429C18.7965 29.1109 18.909 29.4809 19.004 29.7289C19.1235 30.0384 19.267 30.2594 19.499 30.4914C19.7355 30.7239 19.957 30.8674 20.264 30.9884C20.5035 31.0824 20.866 31.1939 21.552 31.2259C22.332 31.2609 23.072 31.2704 24.996 31.2704C26.924 31.2704 27.665 31.2609 28.4435 31.2259C29.146 31.1934 29.517 31.0744 29.735 30.9874C30.037 30.8704 30.257 30.7284 30.492 30.4984C30.725 30.2604 30.8695 30.0389 30.9925 29.7314C31.0855 29.4879 31.195 29.1229 31.227 28.4439C31.2615 27.6574 31.2715 26.9164 31.2715 24.9954C31.2715 23.0779 31.2615 22.3379 31.227 21.5524C31.1955 20.8744 31.086 20.5094 30.9935 20.2674C30.874 19.9574 30.731 19.7369 30.4985 19.5049C30.2495 19.2599 30.047 19.1299 29.7245 19.0064C29.4925 18.9139 29.1355 18.8024 28.4445 18.7699C27.677 18.7349 26.9355 18.7254 24.9965 18.7254L24.34 18.7249Z"
        fill="white"
      />
      <path
        d="M24.995 17.3999C26.9495 17.3999 27.6975 17.4094 28.473 17.4449C29.1525 17.4754 29.6805 17.5774 30.187 17.7749C30.6795 17.9649 31.059 18.2114 31.4205 18.5774C31.78 18.9324 32.0285 19.3124 32.2245 19.8069C32.419 20.3189 32.5195 20.8474 32.5505 21.5214C32.5855 22.3094 32.595 23.0574 32.595 24.9999C32.595 26.9464 32.5855 27.6949 32.5505 28.4829C32.5195 29.1579 32.419 29.6864 32.2265 30.1929C32.0285 30.6874 31.7795 31.0684 31.418 31.4299C31.06 31.7924 30.6815 32.0394 30.1915 32.2299C29.68 32.4274 29.15 32.5294 28.4735 32.5599C27.719 32.5944 26.9805 32.5999 24.9955 32.5999C23.0065 32.5999 22.2665 32.5944 21.512 32.5599C20.8325 32.5294 20.3045 32.4279 19.799 32.2299C19.3135 32.0424 18.9335 31.7954 18.5665 31.4289C18.2025 31.0644 17.9555 30.6844 17.765 30.1949C17.573 29.7044 17.4715 29.1759 17.4355 28.4834C17.401 27.7224 17.3955 26.9829 17.3955 24.9994C17.3955 23.0199 17.401 22.2814 17.4355 21.5209C17.466 20.8414 17.5675 20.3134 17.7655 19.8074C17.9555 19.3149 18.202 18.9349 18.567 18.5749C18.9305 18.2114 19.311 17.9644 19.8005 17.7739C20.305 17.5769 20.833 17.4749 21.5125 17.4439C22.2925 17.4094 23.041 17.3999 24.995 17.3999ZM24.995 31.3949C26.9255 31.3949 27.6675 31.3854 28.4485 31.3504C29.17 31.3169 29.554 31.1934 29.7775 31.1039C30.098 30.9799 30.33 30.8304 30.582 30.5834C30.8255 30.3349 30.9775 30.1014 31.1085 29.7734C31.204 29.5229 31.318 29.1459 31.35 28.4489C31.385 27.6609 31.3945 26.9184 31.3945 24.9949C31.3945 23.0754 31.385 22.3339 31.35 21.5459C31.3175 20.8504 31.204 20.4734 31.1085 20.2209C30.984 19.8984 30.8275 19.6579 30.584 19.4139C30.325 19.1594 30.104 19.0169 29.7715 18.8899C29.5285 18.7929 29.159 18.6774 28.449 18.6439C27.6795 18.6089 26.937 18.5994 24.9955 18.5994H24.34C22.962 18.5994 22.205 18.6099 21.546 18.6389C20.858 18.6709 20.4755 18.7869 20.217 18.8854C19.8965 19.0109 19.656 19.1684 19.4125 19.4119C19.169 19.6549 19.012 19.8944 18.887 20.2144C18.7885 20.4709 18.6715 20.8544 18.6395 21.5454C18.605 22.3009 18.5995 22.9959 18.5995 24.9944C18.5995 26.9964 18.6045 27.6929 18.6395 28.4479C18.6715 29.1339 18.788 29.5159 18.886 29.7729C19.012 30.0999 19.164 30.3334 19.411 30.5804C19.6565 30.8214 19.8975 30.9779 20.2175 31.1034C20.4655 31.2004 20.841 31.3164 21.5455 31.3494C22.3275 31.3854 23.069 31.3949 24.995 31.3949ZM24.995 17.1499C22.9995 17.1499 22.268 17.1604 21.5005 17.1949C20.792 17.2269 20.2395 17.3344 19.709 17.5414C19.1855 17.7454 18.779 18.0099 18.3895 18.3984C17.9995 18.7839 17.7345 19.1909 17.5315 19.7179C17.3235 20.2489 17.2165 20.8019 17.185 21.5099C17.1505 22.2784 17.145 23.0194 17.145 24.9994C17.145 26.9839 17.1505 27.7254 17.185 28.4944C17.2225 29.2164 17.3295 29.7689 17.5315 30.2859C17.735 30.8084 18 31.2154 18.389 31.6054C18.782 31.9984 19.1895 32.2624 19.7085 32.4629C20.2395 32.6709 20.7925 32.7779 21.5005 32.8094C22.269 32.8444 23.0105 32.8499 24.995 32.8499C26.975 32.8499 27.7155 32.8449 28.4845 32.8094C29.1895 32.7779 29.744 32.6709 30.2815 32.4629C30.807 32.2584 31.212 31.9939 31.596 31.6054C31.9815 31.2199 32.2475 30.8139 32.459 30.2854C32.6635 29.7479 32.7685 29.1954 32.801 28.4939C32.835 27.7259 32.846 26.9939 32.846 24.9994C32.846 23.0099 32.8355 22.2779 32.801 21.5099C32.769 20.8089 32.664 20.2569 32.4585 19.7174C32.248 19.1864 31.982 18.7794 31.5965 18.3989C31.211 18.0089 30.8045 17.7444 30.277 17.5409C29.7455 17.3329 29.1925 17.2264 28.4845 17.1944C27.7215 17.1604 26.991 17.1499 24.995 17.1499ZM24.995 31.1449C23.074 31.1449 22.335 31.1354 21.557 31.1004C20.889 31.0694 20.539 30.9614 20.309 30.8714C20.018 30.7569 19.809 30.6214 19.5865 30.4024C19.366 30.1819 19.234 29.9794 19.1195 29.6834C19.0285 29.4454 18.92 29.0859 18.8895 28.4364C18.8555 27.6904 18.85 26.9959 18.85 24.9944C18.85 22.9969 18.8555 22.3034 18.8895 21.5569C18.92 20.9029 19.0285 20.5439 19.1205 20.3039C19.233 20.0169 19.369 19.8089 19.5895 19.5889C19.8095 19.3684 20.0175 19.2324 20.3085 19.1184C20.545 19.0284 20.9045 18.9189 21.558 18.8889C22.21 18.8609 22.965 18.8499 24.34 18.8499H24.9955C26.9335 18.8499 27.673 18.8594 28.438 18.8939C29.111 18.9254 29.4545 19.0324 29.679 19.1224C29.985 19.2394 30.174 19.3614 30.409 19.5924C30.627 19.8104 30.763 20.0194 30.876 20.3114C30.964 20.5429 31.0705 20.8964 31.101 21.5579C31.1355 22.3364 31.1455 23.0759 31.1455 24.9954C31.1455 26.9189 31.1355 27.6594 31.101 28.4384C31.07 29.0994 30.9645 29.4519 30.8755 29.6854C30.7585 29.9784 30.625 30.1834 30.404 30.4094C30.1815 30.6279 29.9785 30.7594 29.688 30.8714C29.476 30.9559 29.123 31.0694 28.4375 31.1009C27.66 31.1354 26.92 31.1449 24.995 31.1449Z"
        fill="#472B29"
      />
      <path
        d="M29.25 21.625C28.7675 21.625 28.375 21.2325 28.375 20.75C28.375 20.2675 28.7675 19.875 29.25 19.875C29.4835 19.875 29.7035 19.966 29.8685 20.131C30.034 20.2965 30.125 20.516 30.125 20.7495C30.125 21.2325 29.7325 21.625 29.25 21.625Z"
        fill="white"
      />
      <path
        d="M29.25 20C29.664 20 30 20.336 30 20.75C30 21.164 29.664 21.5 29.25 21.5C28.836 21.5 28.5 21.164 28.5 20.75C28.5 20.336 28.836 20.0005 29.25 20ZM29.25 19.75C28.6985 19.7505 28.25 20.199 28.25 20.75C28.25 21.3015 28.6985 21.75 29.25 21.75C29.8015 21.75 30.25 21.3015 30.25 20.75C30.25 20.1985 29.8015 19.75 29.25 19.75Z"
        fill="#472B29"
      />
      <path
        d="M24.994 20.752C22.6465 20.752 20.7435 22.655 20.7435 25.0025C20.7435 27.35 22.6465 29.252 24.994 29.252C27.3415 29.252 29.2435 27.3495 29.2435 25.0025C29.2435 22.6555 27.341 20.752 24.994 20.752ZM24.994 22.2525C26.5125 22.2525 27.744 23.4835 27.744 25.0025C27.744 26.521 26.5125 27.7525 24.994 27.7525C23.475 27.7525 22.244 26.521 22.244 25.0025C22.244 23.4835 23.475 22.2525 24.994 22.2525Z"
        fill="white"
      />
      <path
        d="M24.994 29.377C22.5815 29.377 20.6185 27.4145 20.6185 25.002C20.6185 22.5895 22.5815 20.627 24.994 20.627C27.406 20.627 29.3685 22.5895 29.3685 25.002C29.3685 27.4145 27.406 29.377 24.994 29.377ZM24.994 20.877C22.719 20.877 20.8685 22.7275 20.8685 25.002C20.8685 27.2765 22.719 29.127 24.994 29.127C27.2685 29.127 29.1185 27.2765 29.1185 25.002C29.1185 22.7275 27.2685 20.877 24.994 20.877ZM24.994 27.877C23.4085 27.877 22.119 26.587 22.119 25.002C22.119 23.417 23.4085 22.127 24.994 22.127C26.5795 22.127 27.869 23.417 27.869 25.002C27.869 26.587 26.5795 27.877 24.994 27.877ZM24.994 22.377C23.5465 22.377 22.369 23.5545 22.369 25.002C22.369 26.4495 23.5465 27.627 24.994 27.627C26.4415 27.627 27.619 26.4495 27.619 25.002C27.619 23.5545 26.4415 22.377 24.994 22.377Z"
        fill="#472B29"
      />
    </svg>