<svg width="80" height="80" viewBox="0 0 80 80" fill="none" xmlns="http://www.w3.org/2000/svg">
<path d="M8.03967 67.4143C10.3247 70.588 13.414 73.4645 16.6927 75.7902C17.1062 75.9085 17.5107 76.014 17.8794 76.1187C23.4664 77.7051 29.3476 78.8286 35.1619 78.894C40.1235 78.9497 45.1541 78.9267 49.9845 77.6325C54.4524 76.4353 59.1634 74.0458 62.9779 71.4511C67.7611 68.1976 71.3605 63.4222 74.1422 58.3946C76.3266 54.4465 78.3383 49.6733 78.4313 45.1173C78.5255 40.5035 78.1148 35.9412 77.2959 31.3985C76.1382 24.9757 72.5028 20.0635 68.1501 15.3775C62.2481 9.02375 53.6466 -0.0113938 44.0239 1.24872C26.8501 3.49768 11.1554 16.6922 4.41286 32.3447C1.86223 38.2658 0.656724 43.9261 1.9214 50.321C3.07351 56.1468 4.52088 62.5271 8.03967 67.4143Z" fill="#330A68"/>
<path d="M22.7992 78.3263C21.3811 78.3263 20.4896 78.2263 19.2039 77.4432C15.0263 74.899 10.902 71.3897 8.03967 67.4143C4.52088 62.5271 3.07351 56.1468 1.9214 50.321C0.656724 43.9261 1.86223 38.2658 4.41286 32.3447C11.1554 16.6922 26.8501 3.49768 44.0239 1.24872C53.6466 -0.0113938 62.2481 9.02375 68.1501 15.3775C72.5028 20.0635 76.1382 24.9757 77.2959 31.3985C78.1148 35.9412 78.5255 40.5035 78.4313 45.1173C78.3383 49.6733 76.3266 54.4465 74.1422 58.3946C71.3605 63.4222 67.7611 68.1976 62.9779 71.4511C59.1634 74.0458 54.4524 76.4353 49.9845 77.6325C45.1541 78.9267 40.1235 78.9497 35.1619 78.894C29.3476 78.8286 23.4664 77.7051 17.8794 76.1187C16.5324 75.7362 14.7071 75.3433 13.7164 74.3526" stroke="black" stroke-width="1.5" stroke-linecap="round"/>
<path d="M18.2578 34.6153C20.6194 35.7961 21.1748 40.4745 24.4392 40.0082C25.4003 39.8709 26.5695 37.6943 27.2145 37.0121C28.0709 36.1062 28.3144 34.9591 29.0436 34.0476" stroke="black" stroke-width="1.5" stroke-linecap="round"/>
<path d="M52.8857 34.3316C53.2949 35.5963 53.469 38.2298 54.8726 38.7311C55.7049 39.0283 56.3695 38.8493 57.1906 39.3146C58.8653 40.2636 60.0325 40.599 61.4009 39.0938C62.9663 37.3719 64.2392 35.5919 64.2392 33.1963" stroke="black" stroke-width="1.5" stroke-linecap="round"/>
<path d="M29.3271 60.1608C32.6918 61.6465 34.0135 65.0084 36.8646 67.0675C37.3929 67.4491 38.6153 67.3448 39.1984 67.1936C40.4898 66.8588 41.752 65.9506 42.9513 65.396C44.7192 64.5786 46.5866 63.9015 48.155 62.7153C49.5015 61.697 50.8988 60.2265 50.8988 58.4578" stroke="black" stroke-width="1.5" stroke-linecap="round"/>
</svg>
