<svg viewBox="0 0 30 30" fill="none" xmlns="http://www.w3.org/2000/svg"><path d="M21.3562 11.509L21.3633 11.502L20.1469 9.94453C20.1243 9.9154 20.0962 9.89102 20.0641 9.87277C20.0321 9.85453 19.9968 9.84278 19.9602 9.83821C19.9236 9.83364 19.8865 9.83633 19.851 9.84613C19.8154 9.85593 19.7822 9.87264 19.7531 9.89531L17.9812 11.277L15.5027 8.10938C15.4801 8.08025 15.452 8.05586 15.42 8.03762C15.388 8.01937 15.3526 8.00763 15.3161 8.00305C15.2795 7.99848 15.2424 8.00117 15.2068 8.01097C15.1713 8.02077 15.138 8.03748 15.109 8.06016L13.7766 9.1043C13.7474 9.12689 13.723 9.155 13.7048 9.18703C13.6865 9.21906 13.6748 9.25438 13.6702 9.29096C13.6657 9.32754 13.6684 9.36466 13.6781 9.40019C13.6879 9.43573 13.7047 9.46898 13.7273 9.49805L16.2058 12.6691L16.1988 12.6727L17.4152 14.2301C17.5101 14.3531 17.6859 14.3742 17.809 14.2793L19.5808 12.8977L21.8344 15.7805C21.9293 15.9035 22.1051 15.9246 22.2281 15.8297L23.5605 14.7891C23.6836 14.6941 23.7047 14.5184 23.6098 14.3953L21.3562 11.509ZM18.375 0.9375C12.4723 0.9375 7.68749 5.72227 7.68749 11.625C7.68749 14.0965 8.52772 16.3711 9.93397 18.1816L1.01835 27.0973C0.966007 27.1501 0.936646 27.2215 0.936646 27.2959C0.936646 27.3703 0.966007 27.4417 1.01835 27.4945L2.50546 28.9816C2.61444 29.0906 2.79374 29.0906 2.90272 28.9816L11.8183 20.066C13.6289 21.4723 15.9035 22.3125 18.375 22.3125C24.2777 22.3125 29.0625 17.5277 29.0625 11.625C29.0625 5.72227 24.2777 0.9375 18.375 0.9375ZM24.0422 17.2922C22.5305 18.8074 20.516 19.6406 18.375 19.6406C16.234 19.6406 14.2195 18.8074 12.7078 17.2922C11.1926 15.7805 10.3594 13.766 10.3594 11.625C10.3594 9.48398 11.1926 7.46953 12.7078 5.95781C14.2195 4.44258 16.234 3.60938 18.375 3.60938C20.516 3.60938 22.5305 4.44258 24.0422 5.95781C25.5574 7.46953 26.3906 9.48398 26.3906 11.625C26.3906 13.766 25.5574 15.7805 24.0422 17.2922Z" fill="#727272" /></svg>

