<svg
      width="96"
      height="96"
      viewBox="0 0 96 96"
      fill="none"
      xmlns="http://www.w3.org/2000/svg"
    >
      <path
        d="M40.0125 81.9188C39.4875 81.2625 38.5313 80.8875 37.7813 80.55C36.9938 80.1938 36.1688 79.9125 35.3813 79.5375C34.4625 79.0875 33.6563 78.4875 32.7563 78.0188C32.25 79.8375 32.5313 81.5813 32.55 83.475C32.5688 85.125 32.475 86.8125 32.775 88.425C33.825 87.975 34.8563 87.3938 35.8125 86.775C37.2 85.8938 38.9063 84.825 39.75 83.3438C39.9563 83.0063 40.3313 82.3313 40.0125 81.9188ZM71.1563 42.6375C68.25 34.4625 60.3188 29.0438 51.6563 28.9313C49.2938 28.8938 46.9125 29.1563 44.6625 29.9625C42.2625 30.8438 40.0688 32.1563 38.0813 33.75C36.2813 35.1938 34.575 36.8625 33.0563 38.5875C32.0813 39.6938 30.9 41.1375 30.7313 42.6563C30.2812 43.875 30.1875 45.1875 30.0938 46.5C29.775 48.375 29.55 50.2875 29.3813 52.1813C29.1562 54.7313 29.1 57.3188 29.55 59.85C29.9625 62.1938 30.8813 64.5563 32.4938 66.3375C34.4438 68.4563 37.0688 69.8625 39.825 70.65C42.4125 71.4 45.075 71.7375 47.7563 71.9063C50.3438 72.075 52.9688 72.2813 55.5375 72.1688C60.5063 71.9625 65.5688 70.4625 68.9438 66.6C74.5688 60.2063 73.8188 50.1375 71.1563 42.6375ZM47.5875 46.2563C46.7625 47.7188 45.3375 48.975 43.6875 49.4063C41.8125 49.8938 40.3688 48.7875 39.675 47.0813C39.3938 46.35 40.0875 45.8063 40.7438 45.8438C40.7813 45.8438 40.8 45.8438 40.8375 45.8438C41.2125 45.8813 41.4563 46.2 41.55 46.5375C41.55 46.5 41.5313 46.4625 41.5313 46.425C41.6438 46.5938 41.7 46.7625 41.7 46.9313C42.7313 48.45 44.775 47.0625 45.7125 45.7313C45.8063 45.375 46.0125 45.1125 46.4438 44.9438C47.1938 44.6438 48 45.5625 47.5875 46.2563ZM58.5375 59.325C58.0688 61.1063 57.0563 63.4313 55.0313 63.8813C52.8 64.3688 50.475 63.2063 49.8 60.9563C49.4625 59.7938 51.225 59.175 51.5625 60.3375C51.9563 61.65 53.5125 62.625 54.8438 61.9688C55.9125 61.425 56.4188 60.0563 56.7 58.9688C57 57.8063 58.8563 58.1625 58.5375 59.325ZM64.35 44.1375C63.8438 45.6563 63.2063 47.2875 61.5375 47.7938C59.7375 48.3375 57.7688 47.025 57.1125 45.3938C56.6625 44.2688 58.425 43.65 58.875 44.775C59.1938 45.5438 60.45 46.4813 61.2938 45.8813C61.7063 45.5813 61.9688 45.15 62.175 44.6813C62.025 44.3813 62.025 44.025 62.3438 43.725C62.475 43.5938 62.5875 43.4813 62.7188 43.35C63.3188 42.7688 64.6875 43.1813 64.35 44.1375ZM62.325 83.7938C62.2125 82.8563 61.3125 82.9688 60.5625 83.0625C59.4 83.2125 58.35 83.3625 57.1875 83.325C55.725 83.2875 54.2625 83.2313 52.8188 83.325C53.2875 84.5063 54.15 85.4813 54.9375 86.4375C55.7625 87.4313 56.4375 88.5563 57.2438 89.55C57.6562 90.0375 58.6125 91.2375 59.3063 90.4875C60.075 89.6438 60.525 88.4063 61.0313 87.375C61.5188 86.4 62.4563 84.9375 62.325 83.7938ZM33.2438 24.4875C32.9625 24.3 32.6625 24.1313 32.3813 23.9625C30.8063 23.1 29.1563 22.2188 27.375 21.8625C26.55 21.6938 25.5563 21.5063 24.7125 21.6375C24.6 21.6563 24.525 21.7125 24.5063 21.7313C24.5063 21.7875 24.5063 21.8625 24.5063 21.9188C24.6375 22.8563 25.2 23.7563 25.6313 24.5813C26.4563 26.175 27.1875 28.8563 28.8563 29.925C29.1 29.2125 29.6063 28.5375 30.0563 28.0125C30.8438 27.075 31.6875 26.175 32.5875 25.35C32.85 25.125 33.1125 24.9 33.3375 24.6375C33.3563 24.6188 33.3563 24.6188 33.375 24.6C33.3375 24.5625 33.2813 24.525 33.2438 24.4875ZM50.3063 12.7688C49.9875 12.075 49.65 11.1563 49.0125 10.6875C48.5438 10.3313 48.0938 10.8938 47.8313 11.2313C46.8188 12.5813 46.0875 14.2875 45.6188 15.9C45.3938 16.6875 45.1313 17.55 45.1313 18.375C45.1313 18.5063 45.1313 18.6375 45.15 18.75C45.2625 18.6938 45.3938 18.6563 45.5438 18.6563C47.1562 18.6375 48.75 18.4125 50.3438 18.4875C51.375 18.5438 52.4625 18.6375 53.475 18.45C52.4813 16.5375 51.2062 14.775 50.3063 12.7688ZM72.4875 16.4813C71.025 16.6875 69.5813 17.1188 68.2125 17.6438C66.75 18.1875 65.1375 18.8063 63.9375 19.875C64.2375 20.1188 64.5375 20.4 64.7813 20.5875C65.3625 21.0375 65.9063 21.5063 66.4688 21.975C67.2188 22.6125 68.0063 23.25 68.7188 23.925C69.075 24.2625 69.4688 24.6375 69.7313 25.0688C70.2375 24.675 70.8375 24.5063 71.3625 24.075C71.9813 23.5688 72.1688 22.2938 72.3 21.5625C72.6563 19.9313 72.825 18.15 72.4875 16.4813ZM22.425 67.7813C22.0125 67.1813 21.5438 66.6 21.1125 66C20.5313 65.2313 19.8938 64.3688 19.575 63.4313C18.1688 63.8438 17.55 66.1313 16.8 67.2375C16.2563 68.0438 15.6937 68.8313 15.225 69.675C14.9062 70.2563 14.4563 70.95 14.4938 71.625C14.5125 72 15.2813 72.075 15.75 72.075C16.4813 72.075 17.2312 72 17.9437 71.8688C19.8 71.5125 21.225 70.1063 22.9688 69.3938C22.9688 69.2813 22.9875 69.15 23.025 69.0188C23.1563 68.7375 22.5938 68.0063 22.425 67.7813ZM19.5375 42.8063C19.0125 41.9625 17.6438 42.5813 16.95 42.8438C16.0125 43.2 15.0938 43.65 14.1375 43.95C13.2563 44.2313 12.3187 44.3813 11.4562 44.7C11.175 44.8125 10.8 44.925 10.5938 45.15C10.5938 45.1688 10.6125 45.1688 10.6125 45.1875C10.7812 45.45 10.9875 45.7125 11.2313 45.9188C12.0188 46.65 18.3938 51.5625 18.9188 50.5313C19.4063 49.5938 19.35 48.375 19.4438 47.3438C19.575 45.9375 19.725 44.5313 19.95 43.1438C19.7813 43.0875 19.65 42.975 19.5375 42.8063ZM78.0938 77.85C77.9063 76.9875 77.9063 76.2375 77.9063 75.3563C77.9063 74.6063 78.0188 73.5938 77.7188 72.8813C77.7375 72.9188 77.6813 72.8625 77.6063 72.8813C77.4375 72.9 77.2688 72.9563 77.1188 73.0313C75.9938 73.5563 75.075 74.6438 74.3063 75.5625C73.95 75.9938 73.5938 76.4438 73.275 76.9125C73.2 77.025 73.1063 77.1563 73.05 77.2875C73.0313 77.4 72.9938 77.4938 72.9563 77.5875C73.7625 78.3188 74.625 79.0125 75.5438 79.575C76.4813 80.1563 77.55 80.7563 78.675 80.9063C78.5813 79.875 78.3 78.8625 78.0938 77.85ZM83.475 34.5563C82.3125 34.65 80.475 34.2 79.5375 35.0063C79.4063 35.1188 79.275 35.175 79.1438 35.2125C79.7813 36.3375 80.2688 37.575 80.7375 38.775C80.9063 39.2063 81.2063 39.7688 81.3563 40.3313C81.4688 40.4063 81.5813 40.5 81.6563 40.65C81.8438 40.9688 82.3313 42.5813 82.7063 42.675C82.65 42.6188 82.9875 42.3938 83.0625 42.3C83.2125 42.1313 83.3625 41.9438 83.475 41.7563C83.7 41.4188 83.9063 41.0625 84.075 40.7063C84.675 39.5063 85.6313 38.475 86.2688 37.275C86.775 36.3188 87.1875 35.3625 87.45 34.3313C86.175 34.0688 84.7313 34.4625 83.475 34.5563ZM86.5313 57.9375C86.1 58.0688 85.6125 57.9563 85.425 57.5438C85.1063 59.3813 84.5625 61.0313 83.8688 62.7938C83.7 63.225 83.1563 64.3313 83.475 64.7813C83.6813 65.0813 84.0938 65.2125 84.4313 65.2875C85.8 65.6063 87.225 65.625 88.6125 65.7188C89.2313 65.7563 89.8875 65.7938 90.5063 65.9063C90.1688 62.9438 88.7813 59.8688 86.5313 57.9375Z"
        fill="#FEBF10"
      />
      <path
        d="M74.0813 15.15C73.95 14.7563 73.5375 14.4938 73.125 14.5313C71.1562 14.6813 69.1875 15.2813 67.35 15.9563C65.5875 16.6125 63.75 17.4563 62.3625 18.7688C62.0625 19.05 62.025 19.3688 62.1562 19.65C61.9125 19.9313 61.8375 20.3438 62.0625 20.7938C62.1 20.85 62.1375 20.8875 62.175 20.9438C62.3438 21.0563 62.4938 21.1688 62.6625 21.2813C62.9625 21.5063 63.2625 21.7313 63.5625 21.9563C64.05 22.3125 64.5 22.6875 64.95 23.0813C65.5687 23.625 66.225 24.1688 66.8438 24.7125C67.0125 24.8625 67.275 25.0688 67.5 25.2938C68.3625 25.8563 69.2062 26.4375 69.9937 27.0938C70.2375 27.1125 70.5 27.0188 70.6875 26.7563C71.25 26.025 72.2625 25.8375 72.9187 25.1813C73.6312 24.45 73.875 23.1375 74.1 22.1813C74.6438 19.95 74.775 17.3813 74.0813 15.15ZM72.3375 21.5813C72.1875 22.3125 72.0187 23.5875 71.4 24.0938C70.875 24.525 70.275 24.6938 69.7688 25.0875C69.5063 24.6563 69.1125 24.2813 68.7563 23.9438C68.0438 23.25 67.2563 22.6313 66.5063 21.9938C65.9438 21.5063 65.4 21.0375 64.8188 20.6063C64.5563 20.4188 64.275 20.1375 63.975 19.8938C65.1563 18.8438 66.7875 18.2063 68.25 17.6625C69.6188 17.1563 71.0625 16.7063 72.525 16.5C72.825 18.15 72.6562 19.9313 72.3375 21.5813ZM23.4 66.8063C22.5188 65.5688 21.6375 64.3313 20.8688 63.0188C20.5313 62.5313 20.1938 62.0438 19.875 61.5375C19.8 61.575 19.725 61.6313 19.65 61.6875C19.4813 61.6125 19.275 61.5938 19.05 61.6313C16.9688 62.0813 16.2563 64.6688 15.225 66.225C14.1188 67.9125 12.4875 69.7875 12.6188 71.925C12.75 74.0438 15.6188 74.025 17.1188 73.875C18.0938 73.7813 19.05 73.5938 19.9313 73.1813C21.2625 72.5625 22.4063 71.5875 23.7938 71.0813C24.2063 70.9313 24.375 70.6125 24.3938 70.275C24.525 70.1813 24.6188 70.05 24.6938 69.8625C24.7875 69.6188 24.825 69.375 24.8438 69.1313C24.375 68.3625 23.925 67.5375 23.4 66.8063ZM23.0438 69.0563C23.0063 69.1875 22.9688 69.3 22.9875 69.4313C21.2625 70.125 19.8188 71.55 17.9625 71.9063C17.2313 72.0375 16.5 72.1125 15.7688 72.1125C15.3 72.1125 14.5313 72.0375 14.5125 71.6625C14.475 70.9875 14.925 70.275 15.2438 69.7125C15.7125 68.8688 16.275 68.0813 16.8188 67.275C17.5688 66.1688 18.1875 63.8813 19.5938 63.4688C19.9125 64.4063 20.55 65.25 21.1313 66.0375C21.5813 66.6188 22.0313 67.2 22.4438 67.8188C22.5938 68.0063 23.1563 68.7375 23.0438 69.0563ZM32.0625 21.675C29.9438 20.5688 27.8625 19.9688 25.4813 19.7813C24.225 19.6688 22.7625 20.0813 22.6313 21.5438C22.5188 22.8188 23.25 24.075 23.8125 25.1625C25.0688 27.5813 26.0063 30.825 28.7063 31.95C29.6063 30.9 30.6563 29.9813 31.65 29.0438C32.0625 28.5563 32.5125 28.1063 32.9438 27.6563C33.75 26.8125 35.325 25.875 35.325 24.5625C35.3625 23.0438 33.1125 22.2188 32.0625 21.675ZM33.3375 24.6375C33.1125 24.9 32.85 25.125 32.5875 25.35C31.6875 26.1563 30.8438 27.075 30.0563 28.0125C29.6063 28.5375 29.1 29.2125 28.8563 29.925C27.1875 28.8563 26.4563 26.175 25.6313 24.5813C25.2 23.7563 24.6188 22.8563 24.5063 21.9188C24.5063 21.8625 24.5063 21.7875 24.5063 21.7313C24.5438 21.7125 24.6 21.6563 24.7125 21.6375C25.5563 21.5063 26.55 21.6938 27.375 21.8625C29.1563 22.2188 30.7875 23.1 32.3813 23.9625C32.6813 24.1313 32.9813 24.2813 33.2438 24.4875C33.2813 24.525 33.3375 24.5625 33.375 24.6C33.3563 24.6188 33.3563 24.6375 33.3375 24.6375ZM55.7063 18.7125C54.9375 17.025 53.8875 15.5063 52.95 13.9125C52.3875 12.9375 51.9938 11.8688 51.4688 10.8563C50.9625 9.88126 50.25 9.00001 49.1625 8.73751C48.15 8.49376 47.1375 9.15001 46.5188 9.88126C45.1125 11.5688 44.25 13.8375 43.6688 15.9188C43.3313 17.1188 42.9563 19.0125 43.6313 20.25C44.9438 20.1188 46.3875 20.3438 47.625 20.4C47.7938 20.4 47.9813 20.4188 48.15 20.4188C49.0312 20.3625 49.9125 20.3438 50.8125 20.3813C52.275 20.4563 53.7563 20.5313 55.125 19.9125C55.5563 19.725 55.9313 19.2188 55.7063 18.7125ZM50.3625 18.4875C48.75 18.4125 47.1563 18.6375 45.5625 18.6563C45.4125 18.6563 45.2812 18.6938 45.1688 18.75C45.1688 18.6188 45.15 18.5063 45.15 18.375C45.15 17.55 45.3938 16.6875 45.6375 15.9C46.1063 14.2875 46.8375 12.5813 47.85 11.2313C48.1125 10.8938 48.5438 10.3313 49.0313 10.6875C49.6688 11.1563 50.0063 12.075 50.325 12.7688C51.2063 14.775 52.5 16.5375 53.5125 18.45C52.4813 18.6563 51.3938 18.5438 50.3625 18.4875ZM20.6813 41.25C18.8625 39.4313 15.45 41.4938 13.5 42.1875C11.6813 42.825 7.2375 43.425 9.13125 46.4063C9.61875 47.175 10.425 47.775 11.1375 48.3C12.0938 48.9938 13.05 49.6875 14.025 50.3625C15.4688 51.375 17.4563 53.025 19.35 52.4438C20.7188 52.0313 20.9813 50.2688 21.1125 49.0688C21.3563 46.7813 21.525 44.4938 21.9563 42.2438C22.1438 41.4375 21.3 41.025 20.6813 41.25ZM19.425 47.3625C19.3313 48.3938 19.3688 49.6125 18.9 50.55C18.375 51.5813 12 46.6688 11.2125 45.9375C10.9688 45.7125 10.7813 45.4688 10.5938 45.2063C10.5938 45.1875 10.575 45.1875 10.575 45.1688C10.7813 44.925 11.1563 44.8125 11.4375 44.7188C12.3188 44.4 13.2375 44.25 14.1188 43.9688C15.075 43.65 15.9938 43.2188 16.9313 42.8625C17.6438 42.6 19.0125 41.9813 19.5188 42.825C19.6313 42.9938 19.7625 43.1063 19.9125 43.1813C19.7063 44.55 19.5563 45.9563 19.425 47.3625ZM90.3 59.6625C89.6625 58.5375 88.8375 57.4875 87.8813 56.6063C87.4688 56.2313 86.8125 55.575 86.1938 55.8188C85.8375 55.9688 85.6312 56.175 85.5188 56.4375C85.2562 55.6125 83.8688 55.4813 83.7188 56.5313C83.55 57.7313 83.3438 58.9313 82.9688 60.0938C82.65 61.0688 82.1625 61.9688 81.8438 62.9438C81.375 64.4438 81.5062 65.9063 82.9688 66.7125C84.2063 67.4063 85.8562 67.4063 87.2437 67.4813C88.4625 67.5563 90.0563 67.4438 91.1625 68.0438C91.8188 68.4188 92.5312 67.8 92.5125 67.125C92.475 64.5188 91.5938 61.9313 90.3 59.6625ZM88.6313 65.7C87.225 65.6063 85.8187 65.5875 84.45 65.2688C84.1125 65.1938 83.7 65.0625 83.4937 64.7625C83.175 64.3125 83.7188 63.2063 83.8875 62.775C84.5812 61.0313 85.125 59.3625 85.4438 57.525C85.6125 57.9375 86.1188 58.0688 86.55 57.9188C88.7812 59.85 90.1687 62.925 90.5437 65.8688C89.9062 65.775 89.25 65.7563 88.6313 65.7ZM88.9875 32.8125C87.15 32.0813 85.2375 32.4938 83.325 32.6813C81.75 32.8313 79.8 32.325 78.4688 33.45C78.0938 33.7688 78.0563 34.2188 78.1875 34.5938C77.6062 34.6875 77.0625 35.3813 77.4563 36.0563C77.925 36.8625 78.2625 37.7625 78.6375 38.625C78.8438 39.0938 79.0312 39.5625 79.2188 40.05C79.35 40.2938 79.4625 40.5375 79.5938 40.7813C79.6125 40.7438 79.6312 40.725 79.65 40.6875C79.6312 40.7438 79.6313 40.8 79.6313 40.8375C79.7812 41.1563 79.9313 41.475 80.0813 41.8125C80.1375 41.85 80.175 41.8688 80.2312 41.8875C80.7375 42.825 80.9625 43.8188 81.9937 44.3625C83.175 45 84.3 43.8188 84.9187 42.9563C85.7625 41.775 86.5312 40.4813 87.3 39.2438C88.3313 37.5938 89.175 35.775 89.4937 33.825C89.55 33.45 89.3812 32.9625 88.9875 32.8125ZM86.2875 37.2563C85.65 38.4563 84.7125 39.4875 84.0938 40.6875C83.9062 41.0438 83.7 41.4 83.4937 41.7375C83.3625 41.925 83.2313 42.1125 83.0813 42.2813C82.9875 42.3938 82.65 42.6188 82.725 42.6563C82.3313 42.5438 81.8625 40.9313 81.675 40.6313C81.5813 40.4813 81.4875 40.3875 81.375 40.3125C81.2438 39.75 80.9438 39.1875 80.7563 38.7563C80.2688 37.5563 79.7812 36.3188 79.1625 35.1938C79.2938 35.175 79.425 35.1 79.5562 34.9875C80.5125 34.1813 82.3312 34.6313 83.4937 34.5375C84.7687 34.4438 86.1937 34.05 87.4875 34.2938C87.2063 35.3438 86.7938 36.3 86.2875 37.2563ZM79.9688 77.775C79.7063 76.5938 79.8 75.4875 79.7625 74.2875C79.7438 73.3688 79.6875 72.15 78.9563 71.4938C78.375 70.95 77.5687 70.95 76.8375 71.1188C75.2812 71.4938 73.9688 73.0313 72.975 74.1938C72.4875 74.7563 71.2125 76.0125 71.1187 76.9875C70.7437 77.325 70.5938 77.9438 71.0625 78.4125C73.1813 80.5125 76.4438 83.1188 79.6313 82.7625C80.0063 82.725 80.4563 82.425 80.475 82.0125C80.5875 80.55 80.3063 79.2 79.9688 77.775ZM75.5063 79.575C74.5875 79.0125 73.7062 78.3188 72.9187 77.5875C72.975 77.4938 73.0125 77.4 73.0125 77.2875C73.0875 77.1563 73.1625 77.025 73.2375 76.9125C73.5563 76.4438 73.9125 76.0125 74.2688 75.5625C75.0375 74.625 75.975 73.5563 77.0813 73.0313C77.2313 72.9563 77.4 72.9 77.5688 72.8813C77.6438 72.8813 77.7 72.9188 77.6812 72.8813C78 73.5938 77.8875 74.6063 77.8687 75.3563C77.85 76.2188 77.8687 76.9875 78.0562 77.85C78.2625 78.8625 78.5625 79.8563 78.6187 80.8875C77.5312 80.7563 76.4625 80.1563 75.5063 79.575ZM62.1938 81.225C61.0688 80.9063 59.7937 81.2813 58.6687 81.45C57.675 81.5813 56.5875 81.4313 55.5938 81.4125C54.5063 81.375 53.4 81.3938 52.3125 81.4875C51.6938 81.5438 51.4313 82.05 51.4875 82.5188C51.075 82.6875 50.7563 83.1188 50.9438 83.6625C51.4875 85.3125 52.6875 86.6438 53.775 87.9563C54.7687 89.175 55.5188 90.5813 56.6625 91.6688C57.5625 92.4938 58.9125 92.9625 60.0188 92.2875C61.35 91.4813 61.8938 89.8125 62.5688 88.4813C63.6563 86.3813 65.6625 82.2 62.1938 81.225ZM61.0312 87.375C60.525 88.4063 60.075 89.6438 59.3062 90.4875C58.6125 91.2375 57.6562 90.0563 57.2437 89.55C56.4187 88.5375 55.7625 87.4313 54.9375 86.4375C54.15 85.4813 53.2875 84.4875 52.8188 83.325C54.2813 83.2313 55.7438 83.2875 57.1875 83.325C58.3688 83.3625 59.4188 83.2125 60.5625 83.0625C61.3125 82.9688 62.2125 82.8563 62.325 83.7938C62.4562 84.9375 61.5187 86.4 61.0312 87.375ZM41.8688 81.4875C41.6438 80.5688 40.6313 79.95 39.8625 79.5188C38.9063 78.9563 37.8375 78.5625 36.8063 78.15C35.4938 77.6063 34.3875 76.7063 33.0938 76.1438C32.8313 76.0313 32.5875 76.0313 32.3813 76.125C31.9688 75.9375 31.4813 76.0313 31.2563 76.575C30.4313 78.75 30.5063 80.7938 30.6375 83.0813C30.7688 85.425 30.5063 87.7688 31.2188 90.0563C31.3688 90.5438 31.95 90.7875 32.4188 90.6375C34.1063 90.0563 35.7188 89.1375 37.2188 88.1625C38.8875 87.0938 40.65 85.7438 41.5688 83.9438C41.9813 83.1375 42.0563 82.3125 41.8688 81.4875ZM39.75 83.3813C38.9063 84.8625 37.2188 85.9313 35.8125 86.8125C34.8563 87.4313 33.825 87.9938 32.775 88.4625C32.475 86.8313 32.5688 85.1438 32.55 83.5125C32.5125 81.6188 32.25 79.8563 32.7563 78.0563C33.6563 78.525 34.4813 79.125 35.3813 79.575C36.1688 79.95 36.9938 80.2313 37.7813 80.5875C38.5313 80.925 39.4875 81.2813 40.0125 81.9563C40.3313 82.3313 39.9563 83.0063 39.75 83.3813ZM46.4438 44.9625C46.0125 45.15 45.8063 45.3938 45.7125 45.75C44.775 47.0625 42.7313 48.45 41.7 46.95C41.7 46.7813 41.6438 46.6125 41.5313 46.4438C41.5313 46.4813 41.55 46.5188 41.55 46.5563C41.4563 46.2188 41.1938 45.9 40.8375 45.8625C40.8 45.8625 40.7813 45.8625 40.7438 45.8625C40.0875 45.8063 39.3938 46.3688 39.675 47.1C40.35 48.8063 41.7938 49.8938 43.6875 49.425C45.3375 49.0125 46.7625 47.7375 47.5875 46.275C48 45.5625 47.1938 44.6438 46.4438 44.9625ZM62.7375 43.35C62.6063 43.4813 62.4938 43.5938 62.3625 43.725C62.0438 44.0438 62.0438 44.4 62.1938 44.6813C61.9875 45.15 61.725 45.6 61.3125 45.8813C60.4688 46.4813 59.2125 45.5438 58.8938 44.775C58.4438 43.65 56.6625 44.2688 57.1313 45.3938C57.7875 47.0438 59.7562 48.3563 61.5562 47.7938C63.225 47.2875 63.8625 45.6375 64.3687 44.1375C64.6875 43.1813 63.3188 42.7688 62.7375 43.35ZM56.7 58.9688C56.4187 60.0563 55.9125 61.425 54.8438 61.9688C53.5125 62.625 51.9563 61.65 51.5625 60.3375C51.225 59.175 49.4438 59.7938 49.8 60.9563C50.475 63.2063 52.8 64.3688 55.0313 63.8813C57.0563 63.4313 58.0688 61.1063 58.5375 59.325C58.8563 58.1625 57 57.8063 56.7 58.9688Z"
        fill="black"
      />
      <path
        d="M73.5937 44.2125C72.45 40.05 70.4625 36.3563 67.3312 33.3563C61.6875 27.9188 53.025 25.8188 45.4875 27.75C41.0063 28.8938 37.1437 31.8 33.9375 35.0063C31.8 37.125 28.6125 40.1063 28.8562 43.3875C28.8187 43.4625 28.8 43.5188 28.7812 43.6125C27.8812 47.5875 27.3937 51.825 27.375 55.8938C27.375 59.625 28.1062 63.45 30.2812 66.5438C32.9062 70.2563 37.3687 72.15 41.6812 73.05C44.2687 73.5938 46.9312 73.7625 49.5562 73.875C52.125 74.0063 54.675 74.1563 57.2437 73.95C62.1187 73.5375 66.825 71.6625 70.2 68.0438C73.05 64.9875 74.4375 60.8625 74.85 56.775C75.2812 52.5375 74.7 48.2813 73.5937 44.2125ZM68.9625 66.6C65.5875 70.4625 60.525 71.9625 55.5562 72.1688C52.9687 72.2813 50.3437 72.075 47.775 71.9063C45.0938 71.7375 42.4312 71.4 39.8437 70.65C37.0875 69.8625 34.4625 68.4563 32.5125 66.3375C30.8812 64.5563 29.9812 62.1938 29.5687 59.85C29.1187 57.3188 29.175 54.7313 29.4 52.1813C29.5688 50.3063 29.7938 48.3938 30.1125 46.5C30.2063 45.1875 30.3 43.875 30.75 42.6563C30.9187 41.1375 32.1 39.6938 33.075 38.5875C34.5937 36.8438 36.3 35.1938 38.1 33.75C40.0875 32.1563 42.2812 30.825 44.6812 29.9625C46.9125 29.1375 49.2937 28.8938 51.675 28.9313C60.3187 29.0438 68.2687 34.4438 71.175 42.6375C73.8187 50.1375 74.5687 60.2063 68.9625 66.6Z"
        fill="black"
      />
    </svg>