<svg width="18" height="18" viewBox="0 0 18 18" fill="none" xmlns="http://www.w3.org/2000/svg">
<path d="M17.3437 9.78516L9.56479 0.820319C9.49447 0.739199 9.40754 0.674141 9.30988 0.629553C9.21223 0.584965 9.10613 0.56189 8.99877 0.56189C8.89142 0.56189 8.78532 0.584965 8.68766 0.629553C8.59001 0.674141 8.50307 0.739199 8.43276 0.820319L0.656196 9.78516C0.632697 9.81218 0.61746 9.84539 0.612301 9.88083C0.607141 9.91626 0.612277 9.95244 0.627095 9.98504C0.641913 10.0176 0.66579 10.0453 0.695882 10.0647C0.725973 10.0841 0.761011 10.0945 0.796821 10.0945H2.69526C2.80307 10.0945 2.9062 10.0477 2.97885 9.96563L8.10932 4.05235V17.25C8.10932 17.3531 8.1937 17.4375 8.29682 17.4375H9.70307C9.8062 17.4375 9.89057 17.3531 9.89057 17.25V4.05235L15.021 9.96563C15.0914 10.0477 15.1945 10.0945 15.3046 10.0945H17.2031C17.3624 10.0945 17.4492 9.90704 17.3437 9.78516Z" fill="white"/>
</svg>
